<?xml version="1.0" standalone="no"?>
<!DOCTYPE svg PUBLIC "-//W3C//DTD SVG 20010904//EN"
 "http://www.w3.org/TR/2001/REC-SVG-20010904/DTD/svg10.dtd">
<svg version="1.0" xmlns="http://www.w3.org/2000/svg"
 width="533.000000pt" height="468.000000pt" viewBox="0 0 533.000000 468.000000"
 preserveAspectRatio="xMidYMid meet">

<g transform="translate(0.000000,468.000000) scale(0.100000,-0.100000)"
fill="#000000" stroke="none">
<path d="M2360 3858 c-195 -121 -480 -298 -632 -393 -153 -95 -275 -175 -271
-179 3 -3 87 -6 185 -6 98 0 178 -3 178 -6 0 -3 -18 -42 -39 -87 -22 -45 -52
-122 -67 -172 -25 -81 -28 -106 -28 -250 -1 -154 0 -164 31 -260 104 -324 421
-804 873 -1320 67 -77 126 -144 130 -148 4 -5 74 70 156 165 555 648 843 1116
895 1455 22 147 -19 371 -99 533 -20 41 -38 78 -40 83 -2 4 80 7 182 7 184 0
212 5 164 31 -13 7 -109 66 -215 131 l-192 120 -3 120 -3 121 -103 63 c-56 35
-105 64 -107 64 -3 0 -5 -49 -5 -110 0 -74 -4 -110 -11 -110 -6 0 -142 81
-301 181 -159 100 -297 183 -306 185 -10 2 -174 -95 -372 -218z m502 -258
c187 -27 365 -125 510 -279 61 -65 87 -103 132 -193 104 -213 125 -400 66
-580 -75 -224 -309 -585 -664 -1021 -67 -82 -132 -164 -146 -183 -14 -18 -29
-32 -35 -31 -13 4 -258 304 -385 473 -241 318 -422 628 -469 801 -50 186 -13
399 103 598 57 98 209 247 309 304 86 49 215 96 297 110 75 12 201 13 282 1z"/>
<path d="M2659 3149 c-249 -37 -415 -299 -340 -538 106 -340 548 -415 752
-128 90 127 104 288 37 428 -84 175 -257 267 -449 238z"/>
</g>
</svg>
